<svg xmlns="http://www.w3.org/2000/svg" viewBox="0 0 25 29" width="25" height="29">
	<style>
		tspan { white-space:pre }
		.shp0 { fill: #fafafa } 
	</style>
	<g id="Header">
		<g id="Text &amp; Button">
			<g id="Buttons">
				<g id="Apple Button">
					<path id="Apple" class="shp0" d="M24.95 20.46C24.95 20.41 24.95 20.41 24.95 20.36L24.95 19.85L24.7 19.7C22.41 18.48 21.35 16.75 21.35 14.41C21.35 12.43 22.21 10.75 23.78 9.63L24.39 9.32L23.99 8.82C22.97 7.54 21.25 5.82 18.56 5.82C18.05 5.82 17.57 5.94 17.1 6.13C18.21 4.92 18.81 3.39 18.81 1.65C18.81 1.34 18.81 1.04 18.76 0.68L18.76 0.58L18.76 0.53L18.71 0.38C18.66 0.27 18.61 0.12 18.46 0.07C18.31 0.02 18.2 -0.03 18.05 0.02C15.37 0.78 12.53 2.92 12.53 6.68C12.53 6.9 12.53 7.11 12.55 7.35C12.11 7.24 11.72 7.02 11.31 6.78C10.6 6.38 9.84 5.92 8.67 5.92C3.55 5.92 0 10.6 0 14.76C0 17.05 0.71 21.02 2.74 24.68C4.31 27.53 6.14 29 8.06 29C8.77 29 9.48 28.75 10.29 28.49C11.11 28.14 12.02 27.83 12.93 27.83C13.69 27.83 14.45 28.14 15.21 28.39C15.97 28.64 16.78 28.95 17.6 28.95C21.6 28.95 25 23.92 25 20.76C25 20.66 24.95 20.56 24.95 20.46ZM17.75 1.19C17.8 1.39 17.8 1.55 17.75 1.7C17.75 5.15 15.16 6.68 13.54 7.29C13.49 7.04 13.49 6.83 13.49 6.68C13.49 3.73 15.62 1.95 17.75 1.19ZM23.99 20.56C23.99 20.61 23.99 20.66 23.99 20.71C23.99 24.53 20.03 27.88 17.6 27.88C16.94 27.88 16.23 27.63 15.52 27.37C14.66 27.07 13.79 26.76 12.88 26.76C11.76 26.76 10.75 27.12 9.89 27.47C9.23 27.73 8.57 27.98 8.06 27.98C6.14 27.98 4.56 25.95 3.65 24.22C1.72 20.71 1.01 16.95 1.01 14.76C1.01 10.14 5.07 6.93 8.67 6.93C9.53 6.93 10.14 7.29 10.85 7.7C11.56 8.1 12.27 8.51 13.29 8.51C14.6 8.51 15.67 8 16.58 7.54C17.34 7.19 17.95 6.88 18.61 6.88C20.59 6.88 21.96 7.95 22.92 9.07C21.3 10.34 20.39 12.22 20.39 14.41C20.39 17.05 21.55 19.03 23.99 20.41C23.99 20.46 23.99 20.51 23.99 20.56Z" />
				</g>
			</g>
		</g>
	</g>
</svg>